<svg xmlns="http://www.w3.org/2000/svg" viewBox="0 0 1600 900" width="1600" height="900">
  <defs>
    <linearGradient id="skyGrad" x1="0%" y1="0%" x2="0%" y2="100%">
      <stop offset="0%" stop-color="#0d1826"/>
      <stop offset="55%" stop-color="#121f33"/>
      <stop offset="100%" stop-color="#1b2b44"/>
    </linearGradient>
    <radialGradient id="glow" cx="50%" cy="18%" r="55%">
      <stop offset="0%" stop-color="rgba(217,171,92,0.28)"/>
      <stop offset="100%" stop-color="rgba(217,171,92,0)"/>
    </radialGradient>
    <filter id="grain">
      <feTurbulence type="fractalNoise" baseFrequency="0.9" numOctaves="2" stitchTiles="stitch" result="noise"/>
      <feColorMatrix in="noise" type="matrix" values="0 0 0 0 0  0 0 0 0 0  0 0 0 0 0  0 0 0 0.04 0"/>
      <feComposite operator="over" in2="SourceGraphic"/>
    </filter>
    </defs>
  
    <rect width="1600" height="900" fill="url(#skyGrad)"/>
    <path d="M0,558.0 L192.0,378.0 L352.0,495.00000000000006 L544.0,270.0 L752.0,450.0 L927.9999999999999,297.0 L1120.0,468.0 L1312.0,342.0 L1488.0,504.00000000000006 L1600,414.0 L1600,900 L0,900 Z" fill="#1c2c42" opacity="0.85"/>
    <path d="M0,666.0 L240.0,522.0 L448.00000000000006,612.0 L640.0,450.0 L(880.0000000000001,),594.0 L1088.0,468.0 L1280.0,630.0 L1472.0,540.0 L1600,612.0 L1600,900 L0,900 Z" fill="#101b2b" opacity="0.92"/>
    <rect width="1600" height="900" fill="url(#glow)"/><rect width="1600" height="900" filter="url(#grain)" opacity="0.5"/><text x="50%" y="450.0" text-anchor="middle" font-family="Georgia, serif" font-size="53" letter-spacing="1" fill="rgba(243,217,153,0.65)">VÍDEO DE APRESENTAÇÃO</text><text x="50%" y="511.0" text-anchor="middle" font-family="Helvetica, Arial, sans-serif" font-size="25" letter-spacing="2" fill="rgba(243,217,153,0.4)">ESPAÇO RESERVADO PARA VSL</text>
</svg>